<svg width="128" height="128" viewBox="0 0 128 128" fill="none" xmlns="http://www.w3.org/2000/svg">
<rect width="128" height="128" rx="64" fill="white"/>
<path d="M64.6265 34.0038C64.8078 34.2208 64.9947 34.4449 65.1873 34.6761C66.5662 36.3281 67.8141 38.0712 68.9311 39.9056C68.9393 39.919 68.9638 39.9456 69.0044 39.9852" stroke="#4AB3CE" stroke-width="2"/>
<path d="M64.5403 47.5218C64.0093 46.2988 63.4471 45.1496 62.8536 44.0744C62.1136 42.7329 61.2605 41.4075 60.2942 40.0983C60.2821 40.0818 60.2679 40.066 60.2515 40.051" stroke="#4AB3CE" stroke-width="2"/>
<path d="M66.4429 16.6265L68.8962 16.847C68.9078 16.848 68.9187 16.8532 68.9269 16.8614C68.935 16.8696 68.94 16.8805 68.9407 16.892L69.1072 19.3139C69.1079 19.3241 69.1117 19.3338 69.1183 19.3416L70.7019 21.2119C70.7094 21.2208 70.7135 21.232 70.7134 21.2435C70.7132 21.255 70.709 21.2661 70.7013 21.2748L69.0738 23.1105C69.0671 23.1181 69.063 23.1276 69.0621 23.1376L68.8376 25.5538C68.8365 25.5653 68.8313 25.576 68.8229 25.584C68.8146 25.5921 68.8035 25.5969 68.7919 25.5977L66.3304 25.7616C66.3201 25.7622 66.3102 25.7661 66.3023 25.7725L64.4034 27.3312C64.3944 27.3386 64.3831 27.3426 64.3713 27.3425C64.3596 27.3424 64.3484 27.3382 64.3395 27.3306L62.4758 25.7275C62.4679 25.7208 62.4581 25.7168 62.4477 25.716L59.9921 25.4955C59.9804 25.4945 59.9695 25.4893 59.9614 25.4811C59.9532 25.4729 59.9483 25.462 59.9475 25.4505L59.7828 23.0291C59.7822 23.019 59.7783 23.0093 59.7717 23.0014L58.1887 21.1306C58.1812 21.1217 58.1771 21.1105 58.1772 21.099C58.1774 21.0875 58.1816 21.0764 58.1893 21.0677L59.8151 19.2326C59.8217 19.225 59.8258 19.2155 59.8268 19.2055L60.0524 16.7881C60.0535 16.7766 60.0587 16.7659 60.0671 16.7579C60.0755 16.7499 60.0865 16.745 60.0981 16.7442L62.559 16.5827C62.5694 16.582 62.5792 16.5782 62.5872 16.5717L64.4866 15.0113C64.4956 15.0039 64.507 14.9999 64.5187 15C64.5304 15.0001 64.5417 15.0043 64.5505 15.0119L66.4148 16.615C66.4227 16.6217 66.4325 16.6257 66.4429 16.6265Z" fill="#EF8C25"/>
<path d="M64.627 34.0039C64.8083 34.2209 64.9952 34.445 65.1878 34.6762C66.5667 36.3281 67.8146 38.0713 68.9317 39.9056C68.9399 39.9191 68.9643 39.9456 69.0049 39.9852C69.0014 40.0052 69.0032 40.0212 69.0102 40.0331C72.8419 46.4352 74.739 53.5834 75.0074 60.9399C75.032 61.6185 75.0508 62.2746 75.0485 62.9792C75.0391 65.81 75.0461 68.6407 75.0696 71.4714C75.0699 71.5195 75.0465 71.5676 74.9992 71.6157C73.2955 73.3532 71.583 75.0868 69.9631 76.9011C68.1586 78.9214 66.52 81.116 65.3971 83.5824C65.3911 83.5955 65.3898 83.6103 65.3934 83.6242C65.397 83.6382 65.4053 83.6505 65.417 83.6592C66.1654 84.2218 65.9093 85.26 65.0607 85.552C65.0337 85.5612 65.0202 85.5518 65.0202 85.5237L65.0173 72.2355C65.0173 72.2249 65.0212 72.2146 65.0283 72.2066C65.0354 72.1986 65.0452 72.1932 65.056 72.1916C66.6823 71.9394 67.6716 70.6006 67.9623 69.0858C68.0131 68.8215 68.0385 68.4387 68.0385 67.9374C68.0385 65.4606 68.0389 62.9838 68.0397 60.5071C68.0397 60.0943 68.0195 59.7105 67.9793 59.3558C67.5145 55.2938 66.2902 51.3801 64.603 47.6545C64.5873 47.6203 64.5664 47.576 64.5402 47.5218C64.0093 46.2988 63.447 45.1496 62.8535 44.0744C62.1135 42.7329 61.2604 41.4075 60.2942 40.0983C60.2821 40.0818 60.2678 40.066 60.2514 40.051C60.2502 40.0372 60.2473 40.0272 60.2426 40.021C58.688 37.9143 56.8817 36.0431 54.8238 34.4073C53.6616 33.4834 52.3764 32.5941 51.0167 31.9761C50.9987 31.968 50.9787 31.9651 50.9592 31.9677C50.9397 31.9704 50.9214 31.9785 50.9065 31.9911C47.6878 34.697 44.6614 37.6723 42.1759 41.0569C39.8195 44.2662 38.15 47.7774 37.1673 51.5907C36.4136 54.5165 36.0567 57.6044 35.9612 60.6456C35.9459 61.1349 35.9225 61.6318 35.9225 62.1159C35.9229 68.2971 35.9227 74.4783 35.9219 80.6595C35.9219 80.6795 35.9118 80.6895 35.8914 80.6895H27.057C27.0191 80.6895 27.0002 80.6711 27.0002 80.6342C26.9998 74.5807 27 68.516 27.0008 62.4402C27.0012 61.0887 27.0901 59.5886 27.2674 57.9397C27.8219 52.7926 29.2597 47.9198 31.5809 43.3213C34.3911 37.7537 38.4069 32.7661 43.0016 28.4963C45.4678 26.2054 48.0934 24.114 50.7418 22.0366C50.7481 22.0316 50.7557 22.0288 50.7636 22.0286C50.7714 22.0284 50.779 22.0308 50.7852 22.0354C51.8886 22.8299 52.9869 23.6295 54.0801 24.4343C57.9399 27.277 61.5091 30.4059 64.627 34.0039Z" fill="#58C7E3"/>
<path d="M69.0049 39.9852C68.9643 39.9456 68.9398 39.9191 68.9316 39.9056C67.8146 38.0713 66.5666 36.3281 65.1878 34.6762C64.9952 34.445 64.8082 34.2209 64.627 34.0039C66.0062 32.3681 67.4647 30.8094 69.0025 29.3279C71.787 26.6456 74.6329 24.3616 77.6037 22.0395C77.6111 22.0337 77.6203 22.0304 77.6297 22.0302C77.6391 22.03 77.6483 22.0329 77.6558 22.0383C78.5686 22.6977 79.4822 23.361 80.3969 24.0281C86.063 28.1605 91.2562 32.9207 95.0826 38.7826C98.1899 43.5423 100.234 48.8739 101.187 54.4409C101.668 57.2547 101.91 60.1169 101.911 62.9884C101.914 68.788 101.914 74.5876 101.911 80.3871C101.911 80.4764 101.907 80.5655 101.9 80.6543C101.898 80.6778 101.885 80.6895 101.862 80.6895L93.0062 80.689C92.9944 80.689 92.9886 80.6832 92.9886 80.6716C92.989 74.4904 92.989 68.3075 92.9886 62.1228C92.9886 61.158 92.9245 59.9028 92.7963 58.3574C92.5256 55.0941 91.9225 51.8302 90.8582 48.7238C89.5275 44.8374 87.4891 41.3542 84.7432 38.2742C82.6714 35.9503 80.3172 33.8804 77.8475 31.9795C77.8361 31.9709 77.8224 31.9657 77.8081 31.9645C77.7938 31.9632 77.7794 31.9661 77.7666 31.9726C75.547 33.1329 73.5977 34.6183 71.9188 36.4287C70.9217 37.504 69.9504 38.6895 69.0049 39.9852Z" fill="#3C9EB8"/>
<path d="M60.2516 40.051C60.268 40.066 60.2822 40.0818 60.2944 40.0983C61.2606 41.4075 62.1137 42.7329 62.8537 44.0744C63.4472 45.1496 64.0094 46.2988 64.5404 47.5218C62.7892 51.2035 61.5005 55.097 60.9636 59.1313C60.9222 59.4433 60.9015 59.7747 60.9015 60.1256C60.9007 62.667 60.9007 65.2085 60.9015 67.7499C60.9015 68.2531 60.9246 68.6361 60.9707 68.8988C61.1055 69.6621 61.4022 70.3448 61.8609 70.9468C62.4415 71.7082 63.2175 72.1341 64.1888 72.2245C64.2001 72.2256 64.2105 72.2308 64.2181 72.239C64.2257 72.2472 64.2299 72.2579 64.2298 72.2689L64.2234 85.5346C64.2234 85.5696 64.2066 85.5812 64.173 85.5693C63.4427 85.3096 63.07 84.5692 63.55 83.8865C63.6074 83.8052 63.7064 83.7296 63.7832 83.6476C63.7973 83.6326 63.7996 83.6159 63.7903 83.5974C61.4014 78.9329 57.878 75.0521 53.9173 71.6272C53.8892 71.603 53.8751 71.5655 53.8751 71.5147C53.8763 68.769 53.8851 66.0227 53.8646 63.277C53.8031 55.0168 55.9123 47.1554 60.224 40.1203C60.2424 40.0899 60.2516 40.0668 60.2516 40.051Z" fill="#3C9EB8"/>
<path d="M87.3486 88.8229H85.3848C85.3675 88.8229 85.3535 88.8367 85.3535 88.8537V90.7733C85.3535 90.7903 85.3675 90.804 85.3848 90.804H87.3486C87.3658 90.804 87.3798 90.7903 87.3798 90.7733V88.8537C87.3798 88.8367 87.3658 88.8229 87.3486 88.8229Z" fill="#EF8C25"/>
<path d="M98.9829 89.3074H97.0045C96.995 89.3074 96.9873 89.315 96.9873 89.3243V99.5227C96.9873 99.532 96.995 99.5396 97.0045 99.5396H98.9829C98.9924 99.5396 99.0001 99.532 99.0001 99.5227V89.3243C99.0001 89.315 98.9924 89.3074 98.9829 89.3074Z" fill="#EF8C25"/>
<path d="M52.9342 97.6697C52.8984 97.7 52.9041 97.7152 52.9514 97.7152H58.0772C58.083 97.7152 58.0886 97.713 58.0927 97.7091C58.0968 97.7052 58.0991 97.6998 58.0991 97.6942V92.1905C58.0991 92.1802 58.1041 92.1751 58.1142 92.1751L60.043 92.1761C60.0502 92.1761 60.0571 92.1789 60.0622 92.1839C60.0673 92.1889 60.0702 92.1957 60.0702 92.2027V97.6676C60.0702 97.6994 60.0863 97.7152 60.1187 97.7152L62.6169 97.7158C62.627 97.7158 62.6367 97.7118 62.6438 97.7048C62.651 97.6978 62.655 97.6883 62.655 97.6784V92.2002C62.655 92.1838 62.6633 92.1756 62.68 92.1756L64.6688 92.1761C64.6789 92.1761 64.6886 92.1801 64.6957 92.1871C64.7028 92.1941 64.7068 92.2036 64.7068 92.2135L64.7074 97.6978C64.7074 97.7025 64.7092 97.7069 64.7126 97.7101C64.7159 97.7134 64.7204 97.7152 64.7251 97.7152H66.6388C66.6438 97.7152 66.6485 97.7133 66.6521 97.7098C66.6556 97.7064 66.6576 97.7017 66.6576 97.6968V92.1884C66.6576 92.1847 66.659 92.1812 66.6617 92.1786C66.6643 92.176 66.6679 92.1746 66.6716 92.1746L68.6312 92.1771C68.6411 92.1771 68.6505 92.1809 68.6574 92.1876C68.6644 92.1944 68.6683 92.2035 68.6683 92.213L68.6813 97.6932C68.6813 97.7082 68.6889 97.7158 68.7042 97.7158C69.0501 97.7151 69.3972 97.7151 69.7456 97.7158C70.2086 97.7161 70.5256 97.6898 70.6967 97.6369C71.4809 97.3931 71.7025 96.6177 71.7536 95.8781C71.7738 95.58 71.7924 95.2816 71.8094 94.9828C71.9002 93.393 72.8336 92.0312 74.5006 91.729C75.6165 91.5267 76.7965 91.7602 77.5969 92.5807C78.6075 93.6158 78.7817 95.2174 78.5793 96.5695C78.2712 98.6331 76.7423 99.7885 74.6315 99.5037C73.8664 99.4006 73.2695 99.0401 72.8409 98.422C72.8294 98.4053 72.8183 98.4056 72.8075 98.4231C72.2548 99.3342 71.1801 99.5401 70.1883 99.5401C64.0432 99.5401 57.898 99.5401 51.7526 99.5401C51.4095 99.5401 51.0168 99.4781 50.5747 99.3542C50.4526 99.3199 50.3974 99.3506 50.2795 99.3819C49.91 99.4798 49.5102 99.5294 49.0802 99.5304C47.2186 99.5362 45.3571 99.5401 43.4955 99.5422C43.4774 99.5422 43.467 99.551 43.4642 99.5688C43.2593 100.984 42.2639 102.082 40.8528 102.416C40.5457 102.489 40.1901 102.52 39.859 102.542C39.836 102.544 39.8246 102.534 39.8246 102.511L39.8251 100.731C39.8251 100.722 39.8287 100.713 39.8351 100.707C39.8416 100.7 39.8503 100.697 39.8595 100.697C40.5515 100.685 41.2043 100.289 41.3508 99.5924C41.3519 99.5869 41.3518 99.5814 41.3504 99.576C41.349 99.5707 41.3464 99.5657 41.3428 99.5615C41.3392 99.5573 41.3347 99.5539 41.3296 99.5516C41.3245 99.5493 41.3189 99.5482 41.3133 99.5483C40.6406 99.5667 39.8444 99.5867 39.2504 99.4377C37.9859 99.1196 37.1814 98.167 36.9889 96.9014C36.7147 95.098 37.172 92.6673 39.3798 92.236C39.5762 92.1978 39.8656 92.1782 40.248 92.1771C41.3218 92.1747 42.3937 92.1746 43.4637 92.1766C43.4706 92.1766 43.4773 92.1793 43.4822 92.1841C43.487 92.1889 43.4898 92.1954 43.4898 92.2022V97.6686C43.4898 97.681 43.4948 97.6929 43.5038 97.7016C43.5128 97.7103 43.525 97.7152 43.5378 97.7152H47.9805C48.0357 97.7152 48.0425 97.6973 48.0008 97.6615L46.0908 96.0241C46.0768 96.0121 46.069 95.9972 46.0673 95.9795C46.0603 95.9112 46.0586 95.8433 46.0621 95.7757C46.207 92.9623 48.7162 91.6353 51.3292 92.004C53.3435 92.2878 54.7947 93.7198 54.898 95.7413C54.9063 95.9088 54.9527 95.9534 54.8025 96.0819C54.173 96.6221 53.5502 97.1513 52.9342 97.6697ZM75.094 97.853C76.6031 97.9637 76.6307 96.1413 76.564 95.1477C76.5092 94.3349 76.2407 93.3116 75.19 93.3393C74.2472 93.3644 73.9844 94.2279 73.9119 95.0012C73.8264 95.9037 73.781 97.7567 75.094 97.853ZM52.7444 95.4161C52.3236 93.1067 48.5165 93.0903 48.2042 95.454C48.2029 95.4644 48.2042 95.475 48.2081 95.4847C48.2119 95.4945 48.2181 95.5031 48.2261 95.5098L50.4495 97.4207C50.4557 97.426 50.4636 97.4289 50.4718 97.4288C50.4799 97.4287 50.4878 97.4256 50.4938 97.4202L52.7136 95.5027C52.7259 95.492 52.7351 95.4785 52.7405 95.4633C52.7459 95.4482 52.7472 95.4319 52.7444 95.4161ZM41.4598 97.6881L41.4734 93.9912C41.4734 93.9794 41.4686 93.9681 41.4601 93.9597C41.4516 93.9514 41.44 93.9467 41.428 93.9467L40.1682 93.9426C39.8458 93.9415 39.5361 94.1126 39.307 94.4182C39.078 94.7239 38.9485 95.139 38.947 95.5723L38.9449 96.0906C38.9441 96.3052 38.9748 96.5178 39.0352 96.7162C39.0956 96.9146 39.1845 97.095 39.2968 97.2471C39.4092 97.3992 39.5427 97.52 39.6899 97.6026C39.8371 97.6852 39.995 97.728 40.1546 97.7286L41.4144 97.7327C41.4265 97.7327 41.438 97.728 41.4465 97.7196C41.455 97.7113 41.4598 97.6999 41.4598 97.6881Z" fill="#EF8C25"/>
<path d="M33.4102 97.6891C33.4118 96.8574 33.4186 96.0251 33.3951 95.1933C33.3701 94.3185 33.0478 93.8125 32.1035 93.8176C32.0993 93.8177 32.0952 93.8167 32.0914 93.815C32.0876 93.8132 32.0843 93.8107 32.0816 93.8075C32.079 93.8043 32.0771 93.8005 32.0761 93.7965C32.0751 93.7925 32.075 93.7884 32.0759 93.7843L32.4143 92.106C32.4171 92.0924 32.4245 92.0803 32.4353 92.0715C32.446 92.0628 32.4594 92.0579 32.4732 92.0578C34.3963 92.0527 35.385 92.9997 35.3917 94.8922C35.397 96.4321 35.3975 97.9722 35.3933 99.5125C35.393 99.5306 35.3836 99.5396 35.3651 99.5396L30.0302 99.5401C30.0101 99.5401 30 99.5302 30 99.5104V97.7352C30 97.7326 30.0005 97.73 30.0016 97.7276C30.0026 97.7252 30.0042 97.723 30.0061 97.7211C30.008 97.7193 30.0103 97.7178 30.0129 97.7168C30.0154 97.7158 30.0181 97.7153 30.0209 97.7153H33.3837C33.4014 97.7153 33.4102 97.7066 33.4102 97.6891Z" fill="#EF8C25"/>
<path d="M89.861 99.1114C89.8584 100.916 88.6424 102.252 86.7933 102.362C86.5034 102.379 86.2342 102.38 85.9856 102.365C84.4875 102.275 83.2694 101.278 82.9998 99.8315C82.9612 99.6243 82.9416 99.284 82.9409 98.8108C82.9392 96.6091 82.939 94.408 82.9404 92.2074C82.9404 92.1989 82.9438 92.1909 82.9499 92.1849C82.9559 92.1789 82.9641 92.1756 82.9727 92.1756L84.9031 92.1766C84.9168 92.1766 84.9299 92.182 84.9396 92.1915C84.9493 92.201 84.9547 92.2139 84.9547 92.2273C84.9526 94.54 84.9528 96.8495 84.9552 99.156C84.9552 99.2789 84.9822 99.4406 85.0361 99.641C85.2572 100.465 86.0962 100.589 86.8319 100.474C87.6344 100.348 87.8211 99.6984 87.8211 99.0034C87.8221 96.7474 87.822 94.4766 87.8206 92.191C87.8206 92.1807 87.826 92.1756 87.8367 92.1756L89.8261 92.1761C89.8473 92.1761 89.8579 92.1865 89.8579 92.2074C89.8579 93.5018 89.8579 94.7966 89.8579 96.0917C89.8579 96.4044 89.8747 96.619 89.9084 96.7355C90.1473 97.5672 91.1954 97.7875 91.9489 97.6948C92.6085 97.6138 93.2817 97.3547 93.4136 96.6335C93.4313 96.5359 93.4405 96.3993 93.4412 96.2238C93.444 94.9352 93.447 93.6003 93.4501 92.2191C93.4501 92.1905 93.4647 92.1761 93.4939 92.1761L95.4358 92.1756C95.4428 92.1756 95.4496 92.1784 95.4546 92.1833C95.4595 92.1881 95.4624 92.1948 95.4624 92.2017C95.4644 93.4794 95.4644 94.7602 95.4624 96.044C95.4617 96.5251 95.4417 96.8656 95.4024 97.0653C95.0488 98.8559 93.1883 99.5611 91.5124 99.5355C90.9548 99.527 90.4111 99.3817 89.8813 99.0996C89.8792 99.0986 89.8768 99.0981 89.8744 99.0981C89.872 99.0982 89.8696 99.0989 89.8676 99.1C89.8655 99.1012 89.8638 99.1029 89.8627 99.1049C89.8615 99.1069 89.861 99.1091 89.861 99.1114Z" fill="#EF8C25"/>
<path d="M94.9457 100.745H92.9444C92.9309 100.745 92.9199 100.756 92.9199 100.769V102.712C92.9199 102.725 92.9309 102.736 92.9444 102.736H94.9457C94.9593 102.736 94.9702 102.725 94.9702 102.712V100.769C94.9702 100.756 94.9593 100.745 94.9457 100.745Z" fill="#EF8C25"/>
</svg>
